<mxfile host="65bd71144e">
    <diagram id="HIP3nbAZw_EuaXWnEj3U" name="Page-1">
        <mxGraphModel dx="532" dy="201" grid="1" gridSize="10" guides="1" tooltips="1" connect="1" arrows="1" fold="1" page="1" pageScale="1" pageWidth="850" pageHeight="1100" math="0" shadow="0">
            <root>
                <mxCell id="0"/>
                <mxCell id="1" parent="0"/>
                <mxCell id="5" value="" style="edgeStyle=none;html=1;" edge="1" parent="1" source="2" target="4">
                    <mxGeometry relative="1" as="geometry"/>
                </mxCell>
                <mxCell id="2" value="Start" style="strokeWidth=2;html=1;shape=mxgraph.flowchart.terminator;whiteSpace=wrap;" parent="1" vertex="1">
                    <mxGeometry x="230" y="310" width="100" height="60" as="geometry"/>
                </mxCell>
                <mxCell id="8" value="" style="edgeStyle=none;html=1;" edge="1" parent="1" source="4" target="6">
                    <mxGeometry relative="1" as="geometry"/>
                </mxCell>
                <mxCell id="4" value="get Length" style="shape=parallelogram;perimeter=parallelogramPerimeter;whiteSpace=wrap;html=1;fixedSize=1;strokeWidth=2;rounded=1;" vertex="1" parent="1">
                    <mxGeometry x="220" y="400" width="120" height="60" as="geometry"/>
                </mxCell>
                <mxCell id="10" value="" style="edgeStyle=none;html=1;" edge="1" parent="1" source="6" target="9">
                    <mxGeometry relative="1" as="geometry"/>
                </mxCell>
                <mxCell id="6" value="get Width" style="shape=parallelogram;perimeter=parallelogramPerimeter;whiteSpace=wrap;html=1;fixedSize=1;strokeWidth=2;rounded=1;" vertex="1" parent="1">
                    <mxGeometry x="210" y="500" width="120" height="60" as="geometry"/>
                </mxCell>
                <mxCell id="12" value="" style="edgeStyle=none;html=1;" edge="1" parent="1" source="9" target="11">
                    <mxGeometry relative="1" as="geometry"/>
                </mxCell>
                <mxCell id="9" value="get Height" style="shape=parallelogram;perimeter=parallelogramPerimeter;whiteSpace=wrap;html=1;fixedSize=1;strokeWidth=2;rounded=1;" vertex="1" parent="1">
                    <mxGeometry x="210" y="600" width="120" height="60" as="geometry"/>
                </mxCell>
                <mxCell id="14" value="" style="edgeStyle=none;html=1;" edge="1" parent="1" source="11" target="13">
                    <mxGeometry relative="1" as="geometry"/>
                </mxCell>
                <mxCell id="11" value="volume =&amp;nbsp;&lt;div&gt;(Length*Width*Height)/3&lt;/div&gt;" style="rounded=1;whiteSpace=wrap;html=1;strokeWidth=2;" vertex="1" parent="1">
                    <mxGeometry x="200" y="700" width="140" height="70" as="geometry"/>
                </mxCell>
                <mxCell id="16" value="" style="edgeStyle=none;html=1;" edge="1" parent="1" source="13" target="15">
                    <mxGeometry relative="1" as="geometry"/>
                </mxCell>
                <mxCell id="13" value="Show Volume" style="shape=parallelogram;perimeter=parallelogramPerimeter;whiteSpace=wrap;html=1;fixedSize=1;rounded=1;strokeWidth=2;" vertex="1" parent="1">
                    <mxGeometry x="210" y="800" width="120" height="60" as="geometry"/>
                </mxCell>
                <mxCell id="15" value="Stop" style="strokeWidth=2;html=1;shape=mxgraph.flowchart.terminator;whiteSpace=wrap;" vertex="1" parent="1">
                    <mxGeometry x="220" y="890" width="100" height="60" as="geometry"/>
                </mxCell>
            </root>
        </mxGraphModel>
    </diagram>
</mxfile>